<svg width="16" height="4" viewBox="0 0 16 4" fill="none" xmlns="http://www.w3.org/2000/svg">
<g clip-path="url(#clip0_2001_2)">
<path d="M13 2C13 1.44 13.44 1 14 1C14.55 1 15 1.44 15 2C15 2.55 14.55 3 14 3C13.44 3 13 2.55 13 2Z" stroke="#3C4469" stroke-width="2" stroke-linejoin="round"/>
<path d="M7 2C7 1.44 7.44 1 8 1C8.55 1 9 1.44 9 2C9 2.55 8.55 3 8 3C7.44 3 7 2.55 7 2Z" stroke="#3C4469" stroke-width="2" stroke-linejoin="round"/>
<path d="M1 2C1 1.44 1.44 1 2 1C2.55 1 3 1.44 3 2C3 2.55 2.55 3 2 3C1.44 3 1 2.55 1 2Z" stroke="#3C4469" stroke-width="2" stroke-linejoin="round"/>
</g>
<defs>
<clipPath id="clip0_2001_2">
<rect width="16" height="4" fill="white"/>
</clipPath>
</defs>
</svg>
