<svg width="24.000000" height="24.000000" viewBox="0 0 24 24" fill="none" xmlns="http://www.w3.org/2000/svg" xmlns:xlink="http://www.w3.org/1999/xlink">
	<defs>
		<clipPath id="clip23_16794">
			<rect rx="0.000000" width="23.000000" height="23.000000" transform="translate(0.500000 0.500000)" fill="white" fill-opacity="0"/>
		</clipPath>
	</defs>
	<g clip-path="url(#clip23_16794)">
		<path id="Vector" d="M15 5C13.34 5 12 6.34 12 8L12 20L13.1 18.33C13.66 17.5 14.6 17 15.6 17L20 17C20.55 17 21 16.55 21 16L21 6C21 5.44 20.55 5 20 5L15 5Z" stroke="#000000" stroke-opacity="1.000000" stroke-width="2.000000" stroke-linejoin="round"/>
		<path id="Vector" d="M9 5C10.65 5 12 6.34 12 8L12 20L10.89 18.33C10.33 17.5 9.39 17 8.39 17L4 17C3.44 17 3 16.55 3 16L3 6C3 5.44 3.44 5 4 5L9 5Z" stroke="#000000" stroke-opacity="1.000000" stroke-width="2.000000" stroke-linejoin="round"/>
	</g>
</svg>
