<svg width="32.000000" height="32.000000" viewBox="0 0 32 32" fill="none" xmlns="http://www.w3.org/2000/svg" xmlns:xlink="http://www.w3.org/1999/xlink">
	<desc>
			Created with Pixso.
	</desc>
	<defs>
		<clipPath id="clip402_12566">
			<rect rx="0.000000" width="31.000000" height="31.000000" transform="translate(0.500000 0.500000)" fill="white" fill-opacity="0"/>
		</clipPath>
	</defs>
	<g clip-path="url(#clip402_12566)">
		<path d="M25.33 5.33C26.07 5.33 26.66 5.93 26.66 6.66L26.66 25.33C26.66 26.06 26.07 26.66 25.33 26.66L6.66 26.66C5.92 26.66 5.33 26.06 5.33 25.33L5.33 6.66C5.33 5.93 5.92 5.33 6.66 5.33L25.33 5.33Z" stroke="#3C4469" stroke-opacity="1.000000" stroke-width="2.000000" stroke-linejoin="round"/>
		<path d="M21.33 21.33L21.33 21.33L21.33 21.33L21.33 21.33L21.33 21.33Z" stroke="#3C4469" stroke-opacity="1.000000" stroke-width="2.000000" stroke-linejoin="round"/>
		<path d="M16 21.33L16 21.33L16 21.33L16 21.33L16 21.33Z" stroke="#3C4469" stroke-opacity="1.000000" stroke-width="2.000000" stroke-linejoin="round"/>
		<path d="M10.67 21.33L10.67 21.33L10.66 21.33L10.66 21.33L10.67 21.33Z" stroke="#3C4469" stroke-opacity="1.000000" stroke-width="2.000000" stroke-linejoin="round"/>
		<path d="M21.33 16L21.33 16L21.33 16L21.33 16L21.33 16Z" stroke="#3C4469" stroke-opacity="1.000000" stroke-width="2.000000" stroke-linejoin="round"/>
		<path d="M16 16L16 16L16 16L16 16L16 16Z" stroke="#3C4469" stroke-opacity="1.000000" stroke-width="2.000000" stroke-linejoin="round"/>
		<path d="M10.67 16L10.67 16L10.66 16L10.66 16L10.67 16Z" stroke="#3C4469" stroke-opacity="1.000000" stroke-width="2.000000" stroke-linejoin="round"/>
		<path d="M5.33 10.66L26.66 10.66" stroke="#3C4469" stroke-opacity="1.000000" stroke-width="2.000000" stroke-linejoin="round" stroke-linecap="round"/>
		<path d="M21.33 2.66L21.33 5.33" stroke="#3C4469" stroke-opacity="1.000000" stroke-width="2.000000" stroke-linejoin="round" stroke-linecap="round"/>
		<path d="M10.66 2.66L10.66 5.33" stroke="#3C4469" stroke-opacity="1.000000" stroke-width="2.000000" stroke-linejoin="round" stroke-linecap="round"/>
	</g>
</svg>
