<svg width="32" height="33" viewBox="0 0 32 33" fill="none" xmlns="http://www.w3.org/2000/svg">
<path d="M15.9805 28.4999C9.36685 28.4926 4.00726 23.1243 4 16.4999C4.47173 16.6334 4.95946 16.7016 5.44964 16.7027C7.0712 16.7146 8.59466 15.9261 9.523 14.5943C10.353 13.3939 10.5283 11.8571 9.99023 10.5C10.3343 10.5614 10.683 10.5927 11.0325 10.5936C12.5862 10.6052 14.0609 9.90838 15.04 8.69998C15.9981 7.52729 16.3727 5.98224 16.0583 4.5C22.675 4.52154 28.0214 9.91155 27.9999 16.5389C27.9784 23.1663 22.5971 28.5214 15.9805 28.4999Z" stroke="#3C4469" stroke-width="2" stroke-linecap="round" stroke-linejoin="round"/>
<path d="M13.334 23.1667H13.3367V23.1694H13.334V23.1667Z" stroke="#3C4469" stroke-width="2" stroke-linecap="round" stroke-linejoin="round"/>
<path d="M20 20.5H20.0027V20.5027H20V20.5Z" stroke="#3C4469" stroke-width="2" stroke-linecap="round" stroke-linejoin="round"/>
<path d="M14.666 16.5H14.6687V16.5027H14.666V16.5Z" stroke="#3C4469" stroke-width="2" stroke-linecap="round" stroke-linejoin="round"/>
<path d="M21.334 13.8333H21.3367V13.8359H21.334V13.8333Z" stroke="#3C4469" stroke-width="2" stroke-linecap="round" stroke-linejoin="round"/>
<path d="M4 9.83325H4.00267V9.83592H4V9.83325Z" stroke="#3C4469" stroke-width="2" stroke-linecap="round" stroke-linejoin="round"/>
<path d="M10.666 4.5H10.6687V4.50267H10.666V4.5Z" stroke="#3C4469" stroke-width="2" stroke-linecap="round" stroke-linejoin="round"/>
<path d="M5.33398 4.5H5.33665V4.50267H5.33398V4.5Z" stroke="#3C4469" stroke-width="2" stroke-linecap="round" stroke-linejoin="round"/>
</svg>
