<svg viewBox="0 0 24 24" xmlns="http://www.w3.org/2000/svg" xmlns:xlink="http://www.w3.org/1999/xlink" width="24.000000" height="24.000000" fill="none">
	<path id="Vector" d="M18 21C18.5523 21 19 20.5523 19 20L19 8.79187C19 8.53995 18.9049 8.29731 18.7338 8.11246L14.2968 3.32059C14.1076 3.11619 13.8416 3 13.5631 3L6 3C5.44772 3 5 3.44772 5 4L5 20C5 20.5523 5.44772 21 6 21L18 21Z" fill-rule="evenodd" stroke="rgb(150,154,159)" stroke-linecap="round" stroke-linejoin="round" stroke-width="2" />
	<path id="Vector" d="M9 17L15 17" stroke="rgb(150,154,159)" stroke-linecap="round" stroke-linejoin="round" stroke-width="2" />
	<path id="Vector" d="M9 14L15 14" stroke="rgb(150,154,159)" stroke-linecap="round" stroke-linejoin="round" stroke-width="2" />
	<path id="Vector" d="M19 9L14 9C13.4477 9 13 8.55228 13 8L13 3" stroke="rgb(150,154,159)" stroke-linecap="round" stroke-linejoin="round" stroke-width="2" />
</svg>
