<svg width="18" height="20" viewBox="0 0 18 20" fill="none" xmlns="http://www.w3.org/2000/svg">
<g clip-path="url(#clip0_2022_2)">
<path d="M2 19C1.44 19 1 18.55 1 18V8C1 7.44 1.44 7 2 7H16C16.55 7 17 7.44 17 8V18C17 18.55 16.55 19 16 19H2Z" stroke="#3C4469" stroke-width="2" stroke-linejoin="round"/>
<path d="M6.23 7C6.1 7 6 6.89 6 6.76V4C6 2.34 7.34 1 9 1C10.65 1 12 2.34 12 4V6.76C12 6.89 11.89 7 11.76 7H6.23Z" stroke="#3C4469" stroke-width="2" stroke-linejoin="round"/>
</g>
<defs>
<clipPath id="clip0_2022_2">
<rect width="18" height="20" fill="white"/>
</clipPath>
</defs>
</svg>
