<svg viewBox="0 0 24 24" xmlns="http://www.w3.org/2000/svg" xmlns:xlink="http://www.w3.org/1999/xlink" width="24.000000" height="24.000000" fill="none">
	<path id="Vector" d="M4 4L20 20" stroke="rgb(20.4,23.8,30.6)" stroke-linecap="round" stroke-linejoin="round" stroke-width="2" />
	<path id="Vector" d="M16.5 16.756C15.1474 17.4846 13.6186 18 12 18C6.47715 18 2 12 2 12C2 12 4.08842 9.20123 7.17205 7.4267M11 6.06448C11.3289 6.02241 11.6625 6 12 6C17.5228 6 22 12 22 12C22 12 21.0559 13.2652 19.5 14.6337" stroke="rgb(20.4,23.8,30.6)" stroke-linecap="round" stroke-linejoin="round" stroke-width="2" />
	<path id="Vector" d="M13.3229 13.4999C12.9703 13.8111 12.5072 13.9999 12 13.9999C10.8954 13.9999 10 13.1045 10 11.9999C10 11.4604 10.2136 10.9708 10.5609 10.6111" stroke="rgb(20.4,23.8,30.6)" stroke-linecap="round" stroke-linejoin="round" stroke-width="2" />
</svg>
