<svg width="20.695312" height="18.008057" viewBox="0 0 20.6953 18.0081" fill="none" xmlns="http://www.w3.org/2000/svg" xmlns:xlink="http://www.w3.org/1999/xlink">
    <defs></defs>
    <path id="Vector" d="M2.34 1L18.34 17M14.84 13.75C13.49 14.48 11.96 15 10.34 15C6.81 15 3.71 12.55 1.93 10.78C1.46 10.31 1.23 10.08 1.07 9.62C0.97 9.29 0.97 8.71 1.07 8.38C1.23 7.92 1.46 7.69 1.93 7.22C2.83 6.33 4.06 5.26 5.51 4.43M17.84 11.63C18.17 11.34 18.48 11.05 18.75 10.78L18.76 10.78C19.23 10.31 19.46 10.08 19.61 9.62C19.72 9.29 19.72 8.71 19.61 8.38C19.46 7.92 19.23 7.69 18.76 7.22C16.98 5.45 13.87 3 10.34 3C10 3 9.67 3.02 9.34 3.06M11.67 10.5C11.31 10.81 10.85 11 10.34 11C9.24 11 8.34 10.1 8.34 9C8.34 8.46 8.56 7.97 8.9 7.61" stroke="#969A9F" stroke-opacity="1.000000" stroke-width="2.000000" stroke-linejoin="round" stroke-linecap="round"></path>
</svg>
