<svg viewBox="0 0 32 32" xmlns="http://www.w3.org/2000/svg" xmlns:xlink="http://www.w3.org/1999/xlink" width="32.000000" height="32.000000" fill="none">
	<rect id="Interface / Slider_02" width="32.000000" height="32.000000" x="0.000000" y="0.000000" />
	<path id="Vector" d="M18.666 24L27.9993 24" stroke="rgb(60,68,105)" stroke-linecap="round" stroke-linejoin="round" stroke-width="2" />
	<path id="Vector" d="M4 24L6.66667 24" stroke="rgb(60,68,105)" stroke-linecap="round" stroke-linejoin="round" stroke-width="2" />
	<path id="Vector" d="M9.99935 27.3337C8.1584 27.3337 6.66602 25.8413 6.66602 24.0003C6.66602 22.1594 8.1584 20.667 9.99935 20.667C11.8403 20.667 13.3327 22.1594 13.3327 24.0003C13.3327 25.8413 11.8403 27.3337 9.99935 27.3337Z" fill-rule="evenodd" stroke="rgb(60,68,105)" stroke-linecap="round" stroke-linejoin="round" stroke-width="2" />
	<path id="Vector" d="M26.666 16L27.9993 16" stroke="rgb(60,68,105)" stroke-linecap="round" stroke-linejoin="round" stroke-width="2" />
	<path id="Vector" d="M4 16L13.3333 16" stroke="rgb(60,68,105)" stroke-linecap="round" stroke-linejoin="round" stroke-width="2" />
	<path id="Vector" d="M21.9993 19.3337C20.1584 19.3337 18.666 17.8413 18.666 16.0003C18.666 14.1594 20.1584 12.667 21.9993 12.667C23.8403 12.667 25.3327 14.1594 25.3327 16.0003C25.3327 17.8413 23.8403 19.3337 21.9993 19.3337Z" fill-rule="evenodd" stroke="rgb(60,68,105)" stroke-linecap="round" stroke-linejoin="round" stroke-width="2" />
	<path id="Vector" d="M17.334 8L28.0007 8" stroke="rgb(60,68,105)" stroke-linecap="round" stroke-linejoin="round" stroke-width="2" />
	<path id="Vector" d="M4 8L5.33333 8" stroke="rgb(60,68,105)" stroke-linecap="round" stroke-linejoin="round" stroke-width="2" />
	<path id="Vector" d="M13.9993 11.3337C12.1584 11.3337 10.666 9.84127 10.666 8.00033C10.666 6.15938 12.1584 4.66699 13.9993 4.66699C15.8403 4.66699 17.3327 6.15938 17.3327 8.00033C17.3327 9.84127 15.8403 11.3337 13.9993 11.3337Z" fill-rule="evenodd" stroke="rgb(60,68,105)" stroke-linecap="round" stroke-linejoin="round" stroke-width="2" />
</svg>
