<svg viewBox="0 0 24 24" xmlns="http://www.w3.org/2000/svg" xmlns:xlink="http://www.w3.org/1999/xlink" width="24.000000" height="24.000000" fill="none">
	<rect id="Arrow / Arrow_Reload_02" width="24.000000" height="24.000000" x="0.000000" y="0.000000" />
	<path id="Vector" d="M14 16L19 16L19 21" stroke="rgb(20.4,23.8,30.6)" stroke-linecap="round" stroke-linejoin="round" stroke-width="2" />
	<path id="Vector" d="M4.58203 14.9968C5.14272 16.3846 6.08146 17.5872 7.29157 18.468C8.50169 19.3488 9.93462 19.8725 11.4275 19.9795C12.9204 20.0865 14.4134 19.7726 15.7368 19.0734C17.0601 18.3742 18.1608 17.3177 18.9137 16.0241" stroke="rgb(20.4,23.8,30.6)" stroke-linecap="round" stroke-linejoin="round" stroke-width="2" />
	<path id="Vector" d="M10 8L5 8L5 3" stroke="rgb(20.4,23.8,30.6)" stroke-linecap="round" stroke-linejoin="round" stroke-width="2" />
	<path id="Vector" d="M19.4176 9.00315C18.8569 7.61541 17.9182 6.41278 16.7081 5.53197C15.498 4.65116 14.065 4.12749 12.5721 4.02048C11.0792 3.91346 9.58624 4.2274 8.26287 4.92661C6.9395 5.62582 5.83882 6.68226 5.08594 7.97584" stroke="rgb(20.4,23.8,30.6)" stroke-linecap="round" stroke-linejoin="round" stroke-width="2" />
</svg>
