<svg viewBox="0 0 24 24" xmlns="http://www.w3.org/2000/svg" xmlns:xlink="http://www.w3.org/1999/xlink" width="24.000000" height="24.000000" fill="none">
	<path id="Vector" d="M7 20C7 18.3431 9.23858 17 12 17C14.7614 17 17 18.3431 17 20" stroke="rgb(60,68,105)" stroke-linecap="round" stroke-linejoin="round" stroke-width="2" />
	<path id="Vector" d="M18 14.25C19.7659 14.7129 21 15.7702 21 17.0004" stroke="rgb(60,68,105)" stroke-linecap="round" stroke-linejoin="round" stroke-width="2" />
	<path id="Vector" d="M6 14.25C4.2341 14.7129 3 15.7702 3 17.0004" stroke="rgb(60,68,105)" stroke-linecap="round" stroke-linejoin="round" stroke-width="2" />
	<path id="Vector" d="M12 14C10.3431 14 9 12.6569 9 11C9 9.34315 10.3431 8 12 8C13.6569 8 15 9.34315 15 11C15 12.6569 13.6569 14 12 14Z" fill-rule="evenodd" stroke="rgb(60,68,105)" stroke-linecap="round" stroke-linejoin="round" stroke-width="2" />
	<path id="Vector" d="M14 5.76389C14.5308 5.28885 15.2316 5 16 5C17.6569 5 19 6.34315 19 8C19 8.8885 18.6138 9.68679 18 10.2361" stroke="rgb(60,68,105)" stroke-linecap="round" stroke-linejoin="round" stroke-width="2" />
	<path id="Vector" d="M10 5.76389C9.46924 5.28885 8.76835 5 8 5C6.34315 5 5 6.34315 5 8C5 8.8885 5.38625 9.68679 6 10.2361" stroke="rgb(60,68,105)" stroke-linecap="round" stroke-linejoin="round" stroke-width="2" />
</svg>
